[Header]
FileType HTR
DataType HTRS
FileVersion 1
NumSegments 64
NumFrames 3
DataFrameRate 24
EulerRotationOrder ZYX
CalibrationUnits mm
RotationUnits Degrees
GlobalAxisofGravity Y
BoneLengthAxis Y
ScaleFactor 1.0
[SegmentNames&Hierarchy]
Hips	GLOBAL
Spine	Hips
Spine1	Spine
Spine2	Spine1
Neck	Spine2
Head	Neck
LeftEye	Head
RightEye	Head
LeftShoulder	Spine2
LeftArm	LeftShoulder
LeftForeArm	LeftArm
LeftHand	LeftForeArm
LeftHandThumb1	LeftHand
LeftHandThumb2	LeftHandThumb1
LeftHandThumb3	LeftHandThumb2
LeftHandThumb4	LeftHandThumb3
LeftHandIndex1	LeftHand
LeftHandIndex2	LeftHandIndex1
LeftHandIndex3	LeftHandIndex2
LeftHandIndex4	LeftHandIndex3
LeftHandMiddle1	LeftHand
LeftHandMiddle2	LeftHandMiddle1
LeftHandMiddle3	LeftHandMiddle2
LeftHandMiddle4	LeftHandMiddle3
LeftHandRing1	LeftHand
LeftHandRing2	LeftHandRing1
LeftHandRing3	LeftHandRing2
LeftHandRing4	LeftHandRing3
LeftHandPinky1	LeftHand
LeftHandPinky2	LeftHandPinky1
LeftHandPinky3	LeftHandPinky2
LeftHandPinky4	LeftHandPinky3
RightShoulder	Spine2
RightArm	RightShoulder
RightForeArm	RightArm
RightHand	RightForeArm
RightHandPinky1	RightHand
RightHandPinky2	RightHandPinky1
RightHandPinky3	RightHandPinky2
RightHandPinky4	RightHandPinky3
RightHandRing1	RightHand
RightHandRing2	RightHandRing1
RightHandRing3	RightHandRing2
RightHandRing4	RightHandRing3
RightHandMiddle1	RightHand
RightHandMiddle2	RightHandMiddle1
RightHandMiddle3	RightHandMiddle2
RightHandMiddle4	RightHandMiddle3
RightHandIndex1	RightHand
RightHandIndex2	RightHandIndex1
RightHandIndex3	RightHandIndex2
RightHandIndex4	RightHandIndex3
RightHandThumb1	RightHand
RightHandThumb2	RightHandThumb1
RightHandThumb3	RightHandThumb2
RightHandThumb4	RightHandThumb3
LeftUpLeg	Hips
LeftLeg	LeftUpLeg
LeftFoot	LeftLeg
LeftToeBase	LeftFoot
RightUpLeg	Hips
RightLeg	RightUpLeg
RightFoot	RightLeg
RightToeBase	RightFoot
[BasePosition]
Hips	0	0	0	0	0	0	1
Spine	0	0	0	0	0	0	1
Spine1	0	0	0	0	0	0	1
Spine2	0	0	0	0	0	0	1
Neck	0	0	0	0	0	0	1
Head	0	0	0	0	0	0	1
LeftEye	0	0	0	0	0	0	1
RightEye	0	0	0	0	0	0	1
LeftShoulder	0	0	0	0	0	0	1
LeftArm	0	0	0	0	0	0	1
LeftForeArm	0	0	0	0	0	0	1
LeftHand	0	0	0	0	0	0	1
LeftHandThumb1	0	0	0	0	0	0	1
LeftHandThumb2	0	0	0	0	0	0	1
LeftHandThumb3	0	0	0	0	0	0	1
LeftHandThumb4	0	0	0	0	0	0	1
LeftHandIndex1	0	0	0	0	0	0	1
LeftHandIndex2	0	0	0	0	0	0	1
LeftHandIndex3	0	0	0	0	0	0	1
LeftHandIndex4	0	0	0	0	0	0	1
LeftHandMiddle1	0	0	0	0	0	0	1
LeftHandMiddle2	0	0	0	0	0	0	1
LeftHandMiddle3	0	0	0	0	0	0	1
LeftHandMiddle4	0	0	0	0	0	0	1
LeftHandRing1	0	0	0	0	0	0	1
LeftHandRing2	0	0	0	0	0	0	1
LeftHandRing3	0	0	0	0	0	0	1
LeftHandRing4	0	0	0	0	0	0	1
LeftHandPinky1	0	0	0	0	0	0	1
LeftHandPinky2	0	0	0	0	0	0	1
LeftHandPinky3	0	0	0	0	0	0	1
LeftHandPinky4	0	0	0	0	0	0	1
RightShoulder	0	0	0	0	0	0	1
RightArm	0	0	0	0	0	0	1
RightForeArm	0	0	0	0	0	0	1
RightHand	0	0	0	0	0	0	1
RightHandPinky1	0	0	0	0	0	0	1
RightHandPinky2	0	0	0	0	0	0	1
RightHandPinky3	0	0	0	0	0	0	1
RightHandPinky4	0	0	0	0	0	0	1
RightHandRing1	0	0	0	0	0	0	1
RightHandRing2	0	0	0	0	0	0	1
RightHandRing3	0	0	0	0	0	0	1
RightHandRing4	0	0	0	0	0	0	1
RightHandMiddle1	0	0	0	0	0	0	1
RightHandMiddle2	0	0	0	0	0	0	1
RightHandMiddle3	0	0	0	0	0	0	1
RightHandMiddle4	0	0	0	0	0	0	1
RightHandIndex1	0	0	0	0	0	0	1
RightHandIndex2	0	0	0	0	0	0	1
RightHandIndex3	0	0	0	0	0	0	1
RightHandIndex4	0	0	0	0	0	0	1
RightHandThumb1	0	0	0	0	0	0	1
RightHandThumb2	0	0	0	0	0	0	1
RightHandThumb3	0	0	0	0	0	0	1
RightHandThumb4	0	0	0	0	0	0	1
LeftUpLeg	0	0	0	0	0	0	1
LeftLeg	0	0	0	0	0	0	1
LeftFoot	0	0	0	0	0	0	1
LeftToeBase	0	0	0	0	0	0	1
RightUpLeg	0	0	0	0	0	0	1
RightLeg	0	0	0	0	0	0	1
RightFoot	0	0	0	0	0	0	1
RightToeBase	0	0	0	0	0	0	1
[Hips]
24	1676.535034	966.3162842	9.492145538	-8.813667297	69.24169159	-16.23070908	1.0
25	1742.184082	985.4543457	7.201664925	-2.884904623	67.12854767	-10.4210043	1.0
26	1806.436523	1002.48291	6.62921381	2.146189928	66.06351471	-5.810433865	1.0
[Spine]
24	0	101.8159943	1.315000057	5.640575886	-11.04158115	6.177186489	1.0
25	0	101.8159943	1.315000057	5.880489826	-8.930522919	3.968576908	1.0
26	0	101.8159943	1.315000057	5.889619827	-7.70101738	1.61710012	1.0
[Spine1]
24	0	100.8349991	-10.00800037	4.010545731	-6.80248785	2.387500763	1.0
25	0	100.8349991	-10.00800037	4.143267155	-5.955935955	1.776183009	1.0
26	0	100.8349991	-10.00800037	4.19453764	-5.176422596	1.110178947	1.0
[Spine2]
24	0	91	-13.73399925	3.961787462	-6.825502396	2.371613503	1.0
25	0	91	-13.73399925	4.112542629	-5.975776196	1.766038179	1.0
26	0	91	-13.73399925	4.171125412	-5.202418804	1.093425274	1.0
[Neck]
24	0	166.7169952	-25.16200066	4.470778465	-5.754257679	-0.9519188404	1.0
25	0	166.7169952	-25.16200066	4.748352528	-5.826349735	-0.9697986841	1.0
26	0	166.7169952	-25.16200066	5.039354324	-5.960300922	-0.8452778459	1.0
[Head]
24	0	96.17900085	16.84999847	-12.90223122	-33.35875702	11.4898262	1.0
25	0	96.17900085	16.84999847	-11.9532299	-33.69162369	11.31649876	1.0
26	0	96.17900085	16.84999847	-11.59611797	-34.12619019	11.4743681	1.0
[LeftEye]
24	30.6760006	64.09500122	92.83599854	0	0	0	1.0
25	30.6760006	64.09500122	92.83599854	0	0	0	1.0
26	30.6760006	64.09500122	92.83599854	0	0	0	1.0
[RightEye]
24	-30.6760006	64.09500122	92.83499908	0	0	0	1.0
25	-30.6760006	64.09500122	92.83499908	0	0	0	1.0
26	-30.6760006	64.09500122	92.83499908	0	0	0	1.0
[LeftShoulder]
24	45.70400238	109.4599991	-26.28000069	0.672150135	-8.839959145	-9.969639778	1.0
25	45.70400238	109.4599991	-26.28000069	1.369277954	-8.425098419	-9.930736542	1.0
26	45.70400238	109.4599991	-26.28000069	1.950946927	-7.917384148	-9.74866581	1.0
[LeftArm]
24	105.923996	-5.24600029	-22.32099915	36.05675125	-28.28984261	-63.83573151	1.0
25	105.923996	-5.24600029	-22.32099915	34.83098602	-26.71803856	-61.85892487	1.0
26	105.923996	-5.24600029	-22.32099915	33.49546432	-24.34962654	-59.73917389	1.0
[LeftForeArm]
24	278.414978	-0.0009999999311	0	-2.400348933e-07	-13.96806908	-0.0002024881542	1.0
25	278.414978	-0.0009999999311	0	1.553987886e-06	-13.9975729	-0.0002203862532	1.0
26	278.414978	-0.0009999999311	0	6.145532438e-07	-15.58885956	-0.0002201126481	1.0
[LeftHand]
24	283.2879944	0	0	-5.605276585	-1.231231809	7.681772709	1.0
25	283.2879944	0	0	-1.865636349	-0.8509562612	5.4172225	1.0
26	283.2879944	0	0	0.004702277482	-0.7593415976	4.41348505	1.0
[LeftHandThumb1]
24	24.6609993	-15.75	26.8239994	0.9464570284	1.151123047	0.2541034818	1.0
25	24.6609993	-15.75	26.8239994	0.9464570284	1.151123047	0.2541034818	1.0
26	24.6609993	-15.75	26.8239994	0.9464570284	1.151123047	0.2541034818	1.0
[LeftHandThumb2]
24	32.29800034	-18.64699936	18.64699936	15.44292068	1.27431643	17.38547325	1.0
25	32.29800034	-18.64699936	18.64699936	15.40867424	1.208364606	17.64371681	1.0
26	32.29800034	-18.64699936	18.64699936	15.58803654	2.489706993	18.10642433	1.0
[LeftHandThumb3]
24	26.52600098	-15.31499958	15.31499958	-3.360003948	-13.80728626	22.40116501	1.0
25	26.52600098	-15.31499958	15.31499958	-3.202429295	-13.42045498	22.30335236	1.0
26	26.52600098	-15.31499958	15.31499958	-2.857401371	-12.5329237	22.25563622	1.0
[LeftHandThumb4]
24	19.54599953	-11.28499985	11.28499985	0	0	0	1.0
25	19.54599953	-11.28499985	11.28499985	0	0	0	1.0
26	19.54599953	-11.28499985	11.28499985	0	0	0	1.0
[LeftHandIndex1]
24	91.09299469	-5.170999527	22.60099792	-1.425368071	-0.4879579842	-25.52726555	1.0
25	91.09299469	-5.170999527	22.60099792	-1.493269086	-0.9013476372	-25.54213524	1.0
26	91.09299469	-5.170999527	22.60099792	-1.525067091	-0.9784291983	-25.74980736	1.0
[LeftHandIndex2]
24	36.76399994	0	0	-0.1279117167	1.216041088	-12.00901031	1.0
25	36.76399994	0	0	-0.1280077398	1.216486931	-12.01352596	1.0
26	36.76399994	0	0	-0.1280103326	1.216487527	-12.01352406	1.0
[LeftHandIndex3]
24	28.83100128	0	0	-0.1330956966	1.240133524	-12.25070286	1.0
25	28.83100128	0	0	-0.1331915855	1.240579605	-12.25523663	1.0
26	28.83100128	0	0	-0.1331883073	1.240582585	-12.25520515	1.0
[LeftHandIndex4]
24	23.92700005	0	0	0	0	0	1.0
25	23.92700005	0	0	0	0	0	1.0
26	23.92700005	0	0	0	0	0	1.0
[LeftHandMiddle1]
24	95.33399963	0	0	-2.018568754	4.094201088	-31.30465889	1.0
25	95.33399963	0	0	-2.031342506	3.832612514	-31.45234871	1.0
26	95.33399963	0	0	-2.062595129	3.504532576	-31.81074333	1.0
[LeftHandMiddle2]
24	36.98199844	0	0	-0.3040854335	1.860378623	-18.56483078	1.0
25	36.98199844	0	0	-0.3037695587	1.859431982	-18.55504036	1.0
26	36.98199844	0	0	-0.3018307388	1.853642344	-18.4950943	1.0
[LeftHandMiddle3]
24	29.50900078	0	0	-0.1097843796	1.127460122	-11.12243366	1.0
25	29.50900078	0	0	-0.1095897779	1.126487613	-11.11271	1.0
26	29.50900078	0	0	-0.1084175184	1.120510221	-11.052948	1.0
[LeftHandMiddle4]
24	28.3390007	0	0	0	0	0	1.0
25	28.3390007	0	0	0	0	0	1.0
26	28.3390007	0	0	0	0	0	1.0
[LeftHandRing1]
24	91.04499817	-0.4390000105	-18.65100098	-2.147955656	7.207700729	-32.77236557	1.0
25	91.04499817	-0.4390000105	-18.65100098	-2.151064873	7.236567974	-32.80754852	1.0
26	91.04499817	-0.4390000105	-18.65100098	-2.193197012	7.235006809	-33.27210999	1.0
[LeftHandRing2]
24	31.54000092	0	0	-0.4628532827	2.278904915	-22.95890617	1.0
25	31.54000092	0	0	-0.4664663672	2.28739953	-23.04951668	1.0
26	31.54000092	0	0	-0.4718868434	2.300091028	-23.18500137	1.0
[LeftHandRing3]
24	29.37700081	0	0	-0.3318782747	1.941110611	-19.40259171	1.0
25	29.37700081	0	0	-0.3349715769	1.949877262	-19.49382973	1.0
26	29.37700081	0	0	-0.3396482468	1.963024735	-19.63077927	1.0
[LeftHandRing4]
24	26.47500038	0	0	0	0	0	1.0
25	26.47500038	0	0	0	0	0	1.0
26	26.47500038	0	0	0	0	0	1.0
[LeftHandPinky1]
24	80.77799988	-4.887000084	-38.06099701	-2.544177294	5.310867786	-37.03248596	1.0
25	80.77799988	-4.887000084	-38.06099701	-2.522052526	5.406359196	-36.79846573	1.0
26	80.77799988	-4.887000084	-38.06099701	-2.527506113	5.020756721	-36.85704803	1.0
[LeftHandPinky2]
24	36	0	0	-0.4941451848	2.351339102	-23.73351669	1.0
25	36	0	0	-0.4996439815	2.363785505	-23.86709213	1.0
26	36	0	0	-0.5053878427	2.376728535	-24.00607491	1.0
[LeftHandPinky3]
24	21.14200211	0	0	-0.2147704512	1.569678903	-15.58103371	1.0
25	21.14200211	0	0	-0.2185811847	1.58328867	-15.71965122	1.0
26	21.14200211	0	0	-0.2226556093	1.597676635	-15.8663702	1.0
[LeftHandPinky4]
24	19.75699997	0	0	0	0	0	1.0
25	19.75699997	0	0	0	0	0	1.0
26	19.75699997	0	0	0	0	0	1.0
[RightShoulder]
24	-45.70000076	109.4620056	-26.28000069	0.6524881721	-3.181114674	9.814243317	1.0
25	-45.70000076	109.4620056	-26.28000069	0.480632931	-2.291631699	9.745872498	1.0
26	-45.70000076	109.4620056	-26.28000069	0.3454543948	-1.472004652	9.828617096	1.0
[RightArm]
24	-105.9280014	-5.248000145	-22.32099915	15.40821266	4.137604237	62.63840103	1.0
25	-105.9280014	-5.248000145	-22.32099915	15.70277214	5.675095558	63.96909714	1.0
26	-105.9280014	-5.248000145	-22.32099915	16.89068794	7.323739529	64.84467316	1.0
[RightForeArm]
24	-278.414978	0	0	-3.252602255e-06	7.171415329	-2.24495966e-06	1.0
25	-278.414978	0	0	-5.534858246e-06	8.891266823	-1.562090256e-05	1.0
26	-278.414978	0	0	6.374714758e-06	10.88053226	-2.491435453e-06	1.0
[RightHand]
24	-283.2879944	0	0.0009999999311	5.853606224	3.105717182	-1.543200612	1.0
25	-283.2879944	0	0.0009999999311	5.608662605	5.217241764	1.718018889	1.0
26	-283.2879944	0	0.0009999999311	5.861563683	6.677522659	3.736638069	1.0
[RightHandPinky1]
24	-80.76699829	-4.885000229	-38.06000137	-1.740464926	-1.446336985	30.12786102	1.0
25	-80.76699829	-4.885000229	-38.06000137	-1.722158194	-2.018378258	29.86690331	1.0
26	-80.76699829	-4.885000229	-38.06000137	-1.702338338	-2.528403521	29.59066582	1.0
[RightHandPinky2]
24	-36	0	0.0009999999311	-0.3902795911	-1.862383008	23.68910027	1.0
25	-36	0	0.0009999999311	-0.3836810887	-1.847274542	23.48541641	1.0
26	-36	0	0.0009999999311	-0.3775830865	-1.833156705	23.29549408	1.0
[RightHandPinky3]
24	-21.14200211	0	0	-0.4451616704	-1.982817411	25.3055687	1.0
25	-21.14200211	0	0	-0.4392406344	-1.970268607	25.13364792	1.0
26	-21.14200211	0	0	-0.4318751991	-1.954463482	24.91847038	1.0
[RightHandPinky4]
24	-19.75699997	0	0	0	0	0	1.0
25	-19.75699997	0	0	0	0	0	1.0
26	-19.75699997	0	0	0	0	0	1.0
[RightHandRing1]
24	-91.03599548	-0.4390000105	-18.65100098	-1.992691159	-2.266186476	33.59008026	1.0
25	-91.03599548	-0.4390000105	-18.65100098	-1.943087459	-2.546358347	32.94786835	1.0
26	-91.03599548	-0.4390000105	-18.65100098	-1.91461134	-2.697025299	32.57827759	1.0
[RightHandRing2]
24	-31.54000092	0	0	-0.6971377134	-2.445317745	31.82019043	1.0
25	-31.54000092	0	0	-0.7053693533	-2.458533764	32.01275635	1.0
26	-31.54000092	0	0	-0.7087501287	-2.463948011	32.09182358	1.0
[RightHandRing3]
24	-29.37700081	0	0	-0.774852097	-2.566205978	33.59778595	1.0
25	-29.37700081	0	0	-0.7836359739	-2.579375267	33.793396	1.0
26	-29.37700081	0	0	-0.7872439027	-2.584776163	33.87369537	1.0
[RightHandRing4]
24	-26.47500038	0	0	0	0	0	1.0
25	-26.47500038	0	0	0	0	0	1.0
26	-26.47500038	0	0	0	0	0	1.0
[RightHandMiddle1]
24	-95.32500458	0	0	-2.325992346	-1.210907459	37.79090118	1.0
25	-95.32500458	0	0	-2.275089264	-1.113680243	37.1676178	1.0
26	-95.32500458	0	0	-2.219619989	-0.9862412214	36.48475647	1.0
[RightHandMiddle2]
24	-36.98199844	0	0	-0.4392538965	-1.970247626	25.13356209	1.0
25	-36.98199844	0	0	-0.4383828044	-1.968401313	25.10860252	1.0
26	-36.98199844	0	0	-0.4373997748	-1.966295958	25.07985497	1.0
[RightHandMiddle3]
24	-29.50900078	0	0	-0.3061606884	-1.659428239	20.93145561	1.0
25	-29.50900078	0	0	-0.3054510057	-1.657524586	20.90629959	1.0
26	-29.50900078	0	0	-0.3046096265	-1.655332446	20.87730026	1.0
[RightHandMiddle4]
24	-28.3390007	0	0.0009999999311	0	0	0	1.0
25	-28.3390007	0	0.0009999999311	0	0	0	1.0
26	-28.3390007	0	0.0009999999311	0	0	0	1.0
[RightHandIndex1]
24	-91.08300018	-5.167999744	22.60099792	-1.40400517	6.918539047	26.53507614	1.0
25	-91.08300018	-5.167999744	22.60099792	-1.261688709	6.99217844	24.56352425	1.0
26	-91.08300018	-5.167999744	22.60099792	-1.111430526	6.990360737	22.40539742	1.0
[RightHandIndex2]
24	-36.76399994	0	0	-0.5661258698	-2.220526218	28.60281944	1.0
25	-36.76399994	0	0	-0.5672941804	-2.222685337	28.63323975	1.0
26	-36.76399994	0	0	-0.5686615705	-2.225163937	28.66814804	1.0
[RightHandIndex3]
24	-28.83100128	0	0	-0.2319516093	-1.448592901	18.19318962	1.0
25	-28.83100128	0	0	-0.232726261	-1.450955033	18.22393417	1.0
26	-28.83100128	0	0	-0.2336101979	-1.453619003	18.25883293	1.0
[RightHandIndex4]
24	-23.92700005	0	0	0	0	0	1.0
25	-23.92700005	0	0	0	0	0	1.0
26	-23.92700005	0	0	0	0	0	1.0
[RightHandThumb1]
24	-24.64799881	-15.72700024	26.82600021	30.15343666	21.14214134	-10.25145817	1.0
25	-24.64799881	-15.72700024	26.82600021	30.15343666	21.14214134	-10.25145817	1.0
26	-24.64799881	-15.72700024	26.82600021	30.15343666	21.14214134	-10.25145817	1.0
[RightHandThumb2]
24	-32.29800034	-18.64699936	18.64699936	13.06972218	-20.15557098	1.801761508	1.0
25	-32.29800034	-18.64699936	18.64699936	11.82034302	-21.37636566	1.319966555	1.0
26	-32.29800034	-18.64699936	18.64699936	10.43606091	-21.63964081	0.7531661391	1.0
[RightHandThumb3]
24	-26.52600098	-15.31399918	15.31399918	-11.95291138	-13.42838192	-10.39686966	1.0
25	-26.52600098	-15.31399918	15.31399918	-11.90436554	-13.53972244	-10.36612225	1.0
26	-26.52600098	-15.31399918	15.31399918	-11.84866142	-13.66796303	-10.33102036	1.0
[RightHandThumb4]
24	-19.54599953	-11.28499985	11.28499985	0	0	0	1.0
25	-19.54599953	-11.28499985	11.28499985	0	0	0	1.0
26	-19.54599953	-11.28499985	11.28499985	0	0	0	1.0
[LeftUpLeg]
24	82.07800293	-67.51699829	-15.99599934	-15.43157387	14.65166569	2.005531311	1.0
25	82.07800293	-67.51699829	-15.99599934	-24.54468918	14.704566	0.304438144	1.0
26	82.07800293	-67.51699829	-15.99599934	-31.76603889	14.65431023	-0.4257881045	1.0
[LeftLeg]
24	0	-443.7049866	2.845999956	67.4987793	-2.951471567	-9.212012291	1.0
25	0	-443.7049866	2.845999956	67.58039093	-1.519943714	-4.903235435	1.0
26	0	-443.7049866	2.845999956	60.86568832	-0.6593911648	-1.701594234	1.0
[LeftFoot]
24	0	-444.2789917	-29.8219986	5.251523972	-2.936774492	-4.243814945	1.0
25	0	-444.2789917	-29.8219986	0.2479479462	-0.5098896623	0.8650451303	1.0
26	0	-444.2789917	-29.8219986	-3.534708023	-0.04838395864	2.198714018	1.0
[LeftToeBase]
24	0	-87.28699493	107.1060028	-10.70589256	6.478022897e-06	2.425531602e-05	1.0
25	0	-87.28699493	107.1060028	-9.048368454	2.040490835e-05	-1.599307143e-05	1.0
26	0	-87.28699493	107.1060028	-8.975723267	-2.108000808e-05	1.70719195e-05	1.0
[RightUpLeg]
24	-82.07800293	-67.51699829	-15.99599934	-36.19409561	0.7008165717	8.806228638	1.0
25	-82.07800293	-67.51699829	-15.99599934	-31.12483978	-0.02642042376	5.687674999	1.0
26	-82.07800293	-67.51699829	-15.99599934	-25.81709862	-0.7114940882	2.28401041	1.0
[RightLeg]
24	0	-443.7049866	2.861999989	34.88451004	1.035302043	0.7936513424	1.0
25	0	-443.7049866	2.861999989	32.15372467	3.58434701	2.302331924	1.0
26	0	-443.7049866	2.861999989	27.84394646	5.276935577	2.827919722	1.0
[RightFoot]
24	0	-444.2770081	-29.83799934	-4.9558568	0.6451314688	-3.384777308	1.0
25	0	-444.2770081	-29.83799934	-7.52981329	0.6495991349	-2.32692337	1.0
26	0	-444.2770081	-29.83799934	-9.314759254	0.7339211702	-0.9620043635	1.0
[RightToeBase]
24	0	-87.28699493	107.1060028	-6.010778427	1.67279577e-05	3.685402135e-06	1.0
25	0	-87.28699493	107.1060028	-6.01077652	-2.117136091e-06	2.460045152e-06	1.0
26	0	-87.28699493	107.1060028	-6.010777473	1.559725206e-05	-3.972473621e-07	1.0
[EndOfFile]
